<?xml version="1.0" encoding="utf-8"?>
<!-- Generator: Adobe Illustrator 16.0.4, SVG Export Plug-In . SVG Version: 6.00 Build 0)  -->
<!DOCTYPE svg PUBLIC "-//W3C//DTD SVG 1.1//EN" "http://www.w3.org/Graphics/SVG/1.1/DTD/svg11.dtd">
<svg version="1.1" id="Layer_1" xmlns="http://www.w3.org/2000/svg" xmlns:xlink="http://www.w3.org/1999/xlink" x="0px" y="0px"
	 width="252.501px" height="73.749px" viewBox="0 0 252.501 73.749" enable-background="new 0 0 252.501 73.749"
	 xml:space="preserve">
<g>
	<path fill="#8E5F13" d="M21.352,8.914c1.83-0.516,8.284-1.465,8.284-1.465l0.853,0.086c-0.223-0.512-0.786-1.744-1.242-2.184
		c-1.519-1.465-5.1-2.967-7.715-4.064c-0.986-0.414-1.839-0.771-2.31-1.015c-0.724-0.375-1.638-0.362-2.657,0.043
		c-1.561,0.62-3.156,2.087-3.436,2.888c-0.207,0.596-0.326,1.686-0.463,3.049c-0.045,0.446-0.087,0.867-0.122,1.09
		c-0.051,0.24-0.579,1.057-0.929,1.598c-0.596,0.923-1.212,1.876-1.41,2.601c-0.027,0.1-0.043,0.228-0.061,0.352
		C10.225,11.872,18.456,9.729,21.352,8.914z"/>
	<path fill="#8E5F13" d="M10.136,11.945c-0.045,0.368-0.055,0.817-0.042,1.293L10.136,11.945z"/>
</g>
<path fill="#4F390E" d="M43.222,7.758c-1.419-3.759-14.996,0.338-17.704,1.197c-1.686,0.536-3.415,1.137-5.137,1.787
	c-7.257,2.737-20.593,8.945-19.12,12.846c1.417,3.758,14.993-0.337,17.705-1.198c0,0,0.001,0,0.001,0
	c1.687-0.535,3.414-1.136,5.135-1.785c5.463-2.061,10.439-4.448,14.011-6.719C42.14,11.323,43.811,9.319,43.222,7.758z"/>
<g>
	<path fill="#AD2A15" d="M34.118,60.388c3.688,0,6.681-2.991,6.681-6.681c0-3.69-2.992-6.681-6.681-6.681v-13.36
		c11.066,0,20.04,8.972,20.04,20.041c0,11.069-8.974,20.042-20.04,20.042V60.388z"/>
</g>
<ellipse transform="matrix(-0.9356 0.353 -0.353 -0.9356 48.6131 21.2336)" cx="22.371" cy="15.049" rx="10.386" ry="2.006"/>
<g>
	<path fill="#991217" d="M34.118,60.387c3.688,0,6.681-2.991,6.681-6.681c0-3.69-2.992-6.68-6.681-6.68c0,0,20.04-4.389,20.04,6.68
		c0,11.069-8.974,20.042-20.04,20.042V60.387z"/>
</g>
<path fill="#8E5F13" d="M30.599,7.869l-0.008-0.018c0,0.007,0.001,0.014,0.002,0.021L30.599,7.869z"/>
<path fill="#4E3910" d="M15.882,8.562c0.26-0.083,0.465-0.305,0.511-0.592l0.576-3.553c0.066-0.407-0.211-0.789-0.617-0.855
	c-0.406-0.065-0.789,0.21-0.855,0.617l-0.575,3.553c-0.066,0.407,0.21,0.79,0.617,0.855C15.656,8.607,15.774,8.597,15.882,8.562z"/>
<path fill="#3F250D" d="M31.431,7.376l-0.739,0.228c0.243-0.06,0.489-0.119,0.739-0.178V7.376z"/>
<path fill="#3F250D" d="M30.691,7.604c-0.058,0.014-0.116,0.028-0.174,0.042l0.021,0.005L30.691,7.604z"/>
<g>
	<g>
		<path fill="#C62D0C" d="M31,20.305V11.23c-1.729-0.117-5.361,0.713-9.388,2.232c-4.014,1.515-7.276,3.283-8.506,4.512
			c-1.371,2.708-2.146,5.767-2.146,9.012c0,11.068,8.974,20.041,20.04,20.041v-13.36c-3.688,0-6.679-2.991-6.679-6.68
			C24.321,23.296,27.312,20.305,31,20.305z"/>
	</g>
</g>
<g>
	<g>
		<path fill="#D3140B" d="M31,20.304v-8.388c-1.773-0.073-5.324,0.75-9.26,2.234c-4.547,1.716-8.134,3.758-8.888,4.973l-0.332,0.111
			c-1.004,2.383-1.561,5-1.561,7.75c0,11.068,20.04,6.681,20.04,6.681c-3.688,0-6.679-2.992-6.679-6.681S27.312,20.304,31,20.304z"
			/>
	</g>
</g>
<path fill="#684416" d="M25.531,8.873c0.845-0.268,2.743-0.85,5.001-1.411L29.65,7.265c0,0-6.454,0.949-8.284,1.465
	c-2.909,0.819-11.214,2.981-11.214,2.981l-0.051,1.565l0.135,1.897c3.476-1.809,7.29-3.432,10.157-4.514
	C22.116,10.009,23.846,9.409,25.531,8.873z"/>
<g>
	<rect x="154.234" y="6.943" fill="#2C9C2E" width="13.361" height="66.804"/>
	<path fill="#27992F" d="M170.713,60.386c11.067,0,20.042-8.971,20.042-20.04s-8.975-20.042-20.042-20.042V6.943
		c18.445,0,33.4,14.955,33.4,33.403c0,18.447-14.955,33.401-33.4,33.401V60.386z"/>
</g>
<g>
	<path fill="#F59112" d="M78.913,33.666c3.688,0,6.682-2.991,6.682-6.68c0-3.689-2.993-6.681-6.682-6.681V6.943
		c11.067,0,20.04,8.973,20.04,20.042c0,11.068-8.973,20.041-20.04,20.041V33.666z"/>
	<rect x="62.435" y="6.943" fill="#D66010" width="13.361" height="66.804"/>
</g>
<g>
	<rect x="108.362" y="6.943" fill="#B6C624" width="32.9" height="13.361"/>
	<rect x="127.902" y="22.977" fill="#B1C620" width="13.36" height="28.056"/>
	<path fill="#A8B21D" d="M114.541,53.707c0,3.689,2.993,6.679,6.682,6.679c3.688,0,6.68-2.99,6.68-6.679h13.36
		c0,11.069-8.973,20.04-20.04,20.04c-11.069,0-20.042-8.971-20.042-20.04H114.541z"/>
</g>
<g>
	<path fill="#1C8BBD" d="M228.999,33.666c3.688,0,6.679-2.991,6.679-6.68c0-3.689-2.99-6.681-6.679-6.681V6.943
		c11.067,0,20.04,8.973,20.04,20.042c0,11.068-8.973,20.041-20.04,20.041V33.666z"/>
	<rect x="212.964" y="6.943" fill="#1E727F" width="13.362" height="66.804"/>
	<polygon fill="#1E278E" points="228.999,48.808 242.332,48.808 248.996,73.692 235.663,73.692 	"/>
</g>
<g>
	<path fill="#D67813" d="M89.917,32.53c3.558-12.607,9.036-16.614,9.036-5.545c0,11.068-8.973,20.041-20.04,20.041
		C78.913,47.026,86.207,45.673,89.917,32.53z"/>
	<path fill="#F36213" d="M62.435,53.707V6.943h13.361c0,0-6.072,14.833-7.563,20.042C66.382,33.468,62.435,53.707,62.435,53.707z"/>
</g>
<g>
	<polygon fill="#E0E312" points="108.362,20.305 108.362,6.943 141.263,6.943 	"/>
	<polygon fill="#A8B21D" points="141.263,51.033 127.902,51.033 127.902,22.977 	"/>
	<path fill="#CADB1A" d="M114.541,53.707c0,3.689,2.993,6.679,6.682,6.679c3.688,0,6.68-2.99,6.68-6.679c0,0,4.388,20.04-6.68,20.04
		c-11.069,0-20.042-8.971-20.042-20.04H114.541z"/>
</g>
<g>
	<polygon fill="#7AB922" points="154.234,73.747 154.234,6.943 167.596,6.943 	"/>
	<path fill="#196E25" d="M170.713,60.386c11.067,0,20.042-8.971,20.042-20.04s-8.975-20.042-20.042-20.042
		c0,0,33.4,1.593,33.4,20.042c0,18.447-14.955,33.401-33.4,33.401V60.386z"/>
</g>
<g>
	<path fill="#195BA1" d="M228.999,33.666c3.688,0,6.679-2.991,6.679-6.68c0-3.689-2.99-6.681-6.679-6.681
		c0,0,20.04-4.389,20.04,6.681c0,11.068-8.973,20.041-20.04,20.041V33.666z"/>
	<polygon fill="#24A697" points="212.964,73.747 212.964,6.943 226.326,6.943 	"/>
	<polygon fill="#213C98" points="228.999,48.808 242.332,48.808 248.996,73.692 	"/>
</g>
<g>
	<rect x="154.188" y="6.888" fill="#2C9C2E" width="13.426" height="67.122"/>
	<path fill="#27992F" d="M170.746,60.585c11.12,0,20.139-9.015,20.139-20.136c0-11.121-9.019-20.137-20.139-20.137V6.888
		c18.534,0,33.561,15.026,33.561,33.562c0,18.535-15.026,33.561-33.561,33.561V60.585z"/>
</g>
<g>
	<path fill="#F59112" d="M78.508,33.737c3.708,0,6.715-3.006,6.715-6.712c0-3.707-3.007-6.712-6.715-6.712V6.888
		c11.121,0,20.137,9.016,20.137,20.137c0,11.121-9.016,20.136-20.137,20.136V33.737z"/>
	<rect x="61.951" y="6.888" fill="#D66010" width="13.425" height="67.122"/>
</g>
<g>
	<rect x="108.099" y="6.888" fill="#B6C624" width="33.058" height="13.425"/>
	<rect x="127.732" y="22.998" fill="#B1C620" width="13.424" height="28.19"/>
	<path fill="#A8B21D" d="M114.307,53.874c0,3.707,3.008,6.711,6.714,6.711c3.704,0,6.712-3.004,6.712-6.711h13.424
		c0,11.122-9.016,20.136-20.136,20.136c-11.123,0-20.138-9.014-20.138-20.136H114.307z"/>
</g>
<g>
	<path fill="#1C8BBD" d="M229.311,33.737c3.706,0,6.711-3.006,6.711-6.712c0-3.707-3.005-6.712-6.711-6.712V6.888
		c11.12,0,20.136,9.016,20.136,20.137c0,11.121-9.016,20.136-20.136,20.136V33.737z"/>
	<rect x="213.199" y="6.888" fill="#1E727F" width="13.424" height="67.122"/>
	<polygon fill="#1E278E" points="229.311,48.951 242.707,48.951 249.402,73.955 236.007,73.955 	"/>
</g>
<g>
	<path fill="#D67813" d="M89.564,32.597c3.576-12.667,9.08-16.693,9.08-5.572c0,11.121-9.016,20.136-20.137,20.136
		C78.508,47.161,85.838,45.802,89.564,32.597z"/>
	<polygon fill="#F36213" points="61.951,74.01 61.951,6.888 75.376,6.888 	"/>
</g>
<g>
	<polygon fill="#E0E312" points="108.099,20.312 108.099,6.888 141.156,6.888 	"/>
	<polygon fill="#A8B21D" points="141.156,51.188 127.732,51.188 127.732,22.998 	"/>
	<path fill="#CADB1A" d="M114.307,53.874c0,3.707,3.008,6.711,6.714,6.711c3.704,0,6.712-3.004,6.712-6.711
		c0,0,4.408,20.136-6.712,20.136c-11.123,0-20.138-9.014-20.138-20.136H114.307z"/>
</g>
<g>
	<polygon fill="#7AB922" points="154.188,74.01 154.188,6.888 167.614,6.888 	"/>
	<path fill="#196E25" d="M170.746,60.585c11.12,0,20.139-9.015,20.139-20.136c0-11.121-9.019-20.137-20.139-20.137
		c0,0,33.561,1.601,33.561,20.137c0,18.535-15.026,33.561-33.561,33.561V60.585z"/>
</g>
<g>
	<path fill="#195BA1" d="M229.311,33.737c3.706,0,6.711-3.006,6.711-6.712c0-3.707-3.005-6.712-6.711-6.712
		c0,0,20.136-4.409,20.136,6.712c0,11.121-9.016,20.136-20.136,20.136V33.737z"/>
	<polygon fill="#24A697" points="213.199,74.01 213.199,6.888 226.623,6.888 	"/>
	<polygon fill="#213C98" points="229.311,48.951 242.707,48.951 249.402,73.955 	"/>
</g>
</svg>
